<?xml version="1.0" standalone="no"?>
<!DOCTYPE svg PUBLIC "-//W3C//DTD SVG 20010904//EN"
 "http://www.w3.org/TR/2001/REC-SVG-20010904/DTD/svg10.dtd">
<svg version="1.0" xmlns="http://www.w3.org/2000/svg"
 width="2048.000000pt" height="2048.000000pt" viewBox="0 0 2048.000000 2048.000000"
 preserveAspectRatio="xMidYMid meet">
<metadata>
Created by potrace 1.14, written by Peter Selinger 2001-2017
</metadata>
<g transform="translate(0.000000,2048.000000) scale(0.100000,-0.100000)"
fill="#000000" stroke="none">
<path d="M0 10240 l0 -10240 10240 0 10240 0 0 10240 0 10240 -10240 0 -10240
0 0 -10240z m10427 3340 c178 -165 1172 -1091 1888 -1759 209 -195 502 -467
650 -606 1779 -1656 4252 -3970 4365 -4083 l35 -35 -50 28 c-81 46 -971 597
-1318 816 -72 45 -498 313 -842 529 -175 110 -701 442 -1115 703 -113 71 -257
162 -320 202 -63 40 -232 147 -375 237 -143 90 -402 254 -575 363 -173 109
-337 213 -365 230 -27 18 -111 71 -185 117 -74 47 -254 161 -400 253 -146 92
-317 200 -380 240 -63 40 -216 137 -340 215 -123 78 -230 144 -237 147 -7 3
-144 -63 -303 -146 -160 -83 -770 -401 -1358 -705 -1565 -811 -2364 -1226
-2932 -1521 -278 -144 -703 -365 -945 -490 -242 -126 -759 -395 -1150 -598
-390 -204 -757 -395 -814 -424 -56 -30 -104 -53 -106 -51 -3 4 212 207 729
688 209 194 486 452 616 574 324 305 1309 1223 1766 1646 109 102 334 311 499
465 165 154 365 341 445 414 80 74 314 292 520 485 206 192 434 404 505 470
134 124 400 373 515 480 36 34 159 149 275 256 115 107 279 260 365 340 190
177 650 603 705 653 22 20 43 35 47 34 4 -1 87 -76 185 -167z m717 -3674 c100
-57 246 -142 326 -188 116 -67 363 -210 652 -377 16 -9 28 -18 28 -21 0 -3
-39 -23 -87 -44 -103 -45 -824 -371 -1508 -681 -620 -281 -1062 -481 -1900
-860 -374 -169 -833 -377 -1019 -461 l-339 -154 -1396 1 -1396 1 75 35 c76 36
861 389 1420 638 85 38 496 222 1060 475 107 48 344 154 525 235 182 81 461
206 620 277 160 72 466 209 680 305 215 96 428 192 475 213 146 66 1154 518
1375 616 116 52 214 94 219 94 5 0 91 -47 190 -104z"/>
</g>
</svg>
